# xmcd CD database file
#
# Track frame offsets:
#	150
#	15930
#	30062
#	48445
#	67000
#	87322
#	102040
#	115455
#	127845
#	141192
#	156600
#	172070
#	188450
#	205910
#	221617
#	237075
#	251242
#	265605
#	282225
#	296972
#	311087
#
# Disc length: 4406 seconds
#
# Revision: 0
# Processed by: cddbd v1.5.2PL0 Copyright (c) Steve Scherf et al.
# Submitted via: CDex 1.70beta2
#
DISCID=31113415
DTITLE=大塚文雄・他 - 決定版　民謡祝い歌
DYEAR=1900
DGENRE=日本民謡
TTITLE0=俵積唄
TTITLE1=長崎のんのこ節
TTITLE2=祝い目出度
TTITLE3=長持唄
TTITLE4=因幡大黒舞
TTITLE5=からめ節
TTITLE6=広島木遣り音頭
TTITLE7=お立酒
TTITLE8=牛深ハイヤ節
TTITLE9=黒田節
TTITLE10=謙良節
TTITLE11=酒造り祝い唄
TTITLE12=秋田長持唄
TTITLE13=伊勢音頭
TTITLE14=米節
TTITLE15=花笠音頭
TTITLE16=さんさ時雨
TTITLE17=喜代節
TTITLE18=秋田大黒舞
TTITLE19=万才くずし
TTITLE20=山形大黒舞
EXTD=
EXTT0=
EXTT1=
EXTT2=
EXTT3=
EXTT4=
EXTT5=
EXTT6=
EXTT7=
EXTT8=
EXTT9=
EXTT10=
EXTT11=
EXTT12=
EXTT13=
EXTT14=
EXTT15=
EXTT16=
EXTT17=
EXTT18=
EXTT19=
EXTT20=
PLAYORDER=
